dataset
version=1
nRows=25
nColumns=39
inDegrees=no
endheader
time	sternoclavicular_r2	sternoclavicular_r3	unrotscap_r3	unrotscap_r2	acromioclavicular_r2	acromioclavicular_r3	acromioclavicular_r1	unrothum_r1	unrothum_r3	unrothum_r2	elv_angle	shoulder_elv	shoulder1_r2	shoulder_rot	elbow_flexion	pro_sup	deviation	flexion	cmc_abduction	cmc_flexion	mp_flexion	ip_flexion	mcp2_flexion	mcp2_abduction	pm2_flexion	md2_flexion	mcp3_flexion	mcp3_abduction	pm3_flexion	md3_flexion	mcp4_flexion	mcp4_abduction	pm4_flexion	md4_flexion	mcp5_flexion	mcp5_abduction	pm5_flexion	md5_flexion
0.000000	-0.015864	-0.263455	0.108821	0.089575	0.073204	0.079277	-0.083166	-0.098858	0.063536	0.133408	0.113600	0.027437	0.146525	0.146525	1.074449	0.901390	0.000000	0.000000	0.000000	0.000000	0.000000	0.000000	0.000000	0.000000	0.000000	0.000000	0.000000	0.000000	0.000000	0.000000	0.000000	0.000000	0.000000	0.000000	0.000000	0.000000	0.000000	0.000000
0.005000	-0.015841	-0.263397	0.108788	0.089483	0.073125	0.079201	-0.083173	-0.098857	0.063410	0.133345	0.113504	0.027437	0.146525	0.146525	1.074290	0.903768	0.000000	0.000000	0.000000	0.000000	0.000000	0.000000	0.000000	0.000000	0.000000	0.000000	0.000000	0.000000	0.000000	0.000000	0.000000	0.000000	0.000000	0.000000	0.000000	0.000000	0.000000	0.000000
0.010000	-0.015817	-0.263341	0.108753	0.089392	0.073048	0.079124	-0.083180	-0.098861	0.063289	0.133285	0.113410	0.027437	0.146525	0.146525	1.074122	0.906133	0.000000	0.000000	0.000000	0.000000	0.000000	0.000000	0.000000	0.000000	0.000000	0.000000	0.000000	0.000000	0.000000	0.000000	0.000000	0.000000	0.000000	0.000000	0.000000	0.000000	0.000000	0.000000
0.015000	-0.015794	-0.263286	0.108719	0.089302	0.072972	0.079046	-0.083187	-0.098870	0.063171	0.133227	0.113318	0.027437	0.146525	0.146525	1.073945	0.908483	0.000000	0.000000	0.000000	0.000000	0.000000	0.000000	0.000000	0.000000	0.000000	0.000000	0.000000	0.000000	0.000000	0.000000	0.000000	0.000000	0.000000	0.000000	0.000000	0.000000	0.000000	0.000000
0.020000	-0.015771	-0.263235	0.108686	0.089216	0.072900	0.078969	-0.083196	-0.098883	0.063057	0.133172	0.113230	0.027437	0.146525	0.146525	1.073761	0.910819	0.000000	0.000000	0.000000	0.000000	0.000000	0.000000	0.000000	0.000000	0.000000	0.000000	0.000000	0.000000	0.000000	0.000000	0.000000	0.000000	0.000000	0.000000	0.000000	0.000000	0.000000	0.000000
0.025000	-0.015749	-0.263185	0.108655	0.089132	0.072829	0.078893	-0.083207	-0.098898	0.062945	0.133119	0.113144	0.027437	0.146525	0.146525	1.073571	0.913140	0.000000	0.000000	0.000000	0.000000	0.000000	0.000000	0.000000	0.000000	0.000000	0.000000	0.000000	0.000000	0.000000	0.000000	0.000000	0.000000	0.000000	0.000000	0.000000	0.000000	0.000000	0.000000
0.030000	-0.015727	-0.263139	0.108626	0.089051	0.072762	0.078818	-0.083219	-0.098915	0.062837	0.133070	0.113062	0.027437	0.146525	0.146525	1.073377	0.915445	0.000000	0.000000	0.000000	0.000000	0.000000	0.000000	0.000000	0.000000	0.000000	0.000000	0.000000	0.000000	0.000000	0.000000	0.000000	0.000000	0.000000	0.000000	0.000000	0.000000	0.000000	0.000000
0.035000	-0.015705	-0.263095	0.108599	0.088974	0.072698	0.078745	-0.083234	-0.098936	0.062733	0.133024	0.112984	0.027437	0.146525	0.146525	1.073181	0.917735	0.000000	0.000000	0.000000	0.000000	0.000000	0.000000	0.000000	0.000000	0.000000	0.000000	0.000000	0.000000	0.000000	0.000000	0.000000	0.000000	0.000000	0.000000	0.000000	0.000000	0.000000	0.000000
0.040000	-0.015684	-0.263055	0.108575	0.088900	0.072638	0.078673	-0.083251	-0.098959	0.062632	0.132982	0.112909	0.027437	0.146525	0.146525	1.072986	0.920010	0.000000	0.000000	0.000000	0.000000	0.000000	0.000000	0.000000	0.000000	0.000000	0.000000	0.000000	0.000000	0.000000	0.000000	0.000000	0.000000	0.000000	0.000000	0.000000	0.000000	0.000000	0.000000
0.045000	-0.015664	-0.263018	0.108554	0.088831	0.072581	0.078603	-0.083269	-0.098985	0.062536	0.132943	0.112839	0.027437	0.146525	0.146525	1.072792	0.922268	0.000000	0.000000	0.000000	0.000000	0.000000	0.000000	0.000000	0.000000	0.000000	0.000000	0.000000	0.000000	0.000000	0.000000	0.000000	0.000000	0.000000	0.000000	0.000000	0.000000	0.000000	0.000000
0.050000	-0.015644	-0.262984	0.108535	0.088765	0.072528	0.078535	-0.083290	-0.099015	0.062446	0.132908	0.112773	0.027437	0.146525	0.146525	1.072604	0.924511	0.000000	0.000000	0.000000	0.000000	0.000000	0.000000	0.000000	0.000000	0.000000	0.000000	0.000000	0.000000	0.000000	0.000000	0.000000	0.000000	0.000000	0.000000	0.000000	0.000000	0.000000	0.000000
0.055000	-0.015625	-0.262953	0.108520	0.088705	0.072480	0.078470	-0.083314	-0.099049	0.062361	0.132877	0.112712	0.027437	0.146525	0.146525	1.072423	0.926737	0.000000	0.000000	0.000000	0.000000	0.000000	0.000000	0.000000	0.000000	0.000000	0.000000	0.000000	0.000000	0.000000	0.000000	0.000000	0.000000	0.000000	0.000000	0.000000	0.000000	0.000000	0.000000
0.060000	-0.015607	-0.262925	0.108507	0.088649	0.072436	0.078407	-0.083339	-0.099087	0.062282	0.132851	0.112657	0.027437	0.146525	0.146525	1.072251	0.928946	0.000000	0.000000	0.000000	0.000000	0.000000	0.000000	0.000000	0.000000	0.000000	0.000000	0.000000	0.000000	0.000000	0.000000	0.000000	0.000000	0.000000	0.000000	0.000000	0.000000	0.000000	0.000000
0.065000	-0.015590	-0.262901	0.108497	0.088598	0.072396	0.078346	-0.083366	-0.099128	0.062210	0.132829	0.112607	0.027437	0.146525	0.146525	1.072092	0.931138	0.000000	0.000000	0.000000	0.000000	0.000000	0.000000	0.000000	0.000000	0.000000	0.000000	0.000000	0.000000	0.000000	0.000000	0.000000	0.000000	0.000000	0.000000	0.000000	0.000000	0.000000	0.000000
0.070000	-0.015574	-0.262880	0.108490	0.088553	0.072361	0.078288	-0.083395	-0.099175	0.062145	0.132812	0.112563	0.027437	0.146525	0.146525	1.071949	0.933313	0.000000	0.000000	0.000000	0.000000	0.000000	0.000000	0.000000	0.000000	0.000000	0.000000	0.000000	0.000000	0.000000	0.000000	0.000000	0.000000	0.000000	0.000000	0.000000	0.000000	0.000000	0.000000
0.075000	-0.015559	-0.262863	0.108486	0.088513	0.072332	0.078234	-0.083427	-0.099226	0.062089	0.132801	0.112525	0.027437	0.146525	0.146525	1.071823	0.935471	0.000000	0.000000	0.000000	0.000000	0.000000	0.000000	0.000000	0.000000	0.000000	0.000000	0.000000	0.000000	0.000000	0.000000	0.000000	0.000000	0.000000	0.000000	0.000000	0.000000	0.000000	0.000000
0.080000	-0.015544	-0.262849	0.108485	0.088479	0.072308	0.078182	-0.083460	-0.099283	0.062041	0.132794	0.112494	0.027437	0.146525	0.146525	1.071720	0.937611	0.000000	0.000000	0.000000	0.000000	0.000000	0.000000	0.000000	0.000000	0.000000	0.000000	0.000000	0.000000	0.000000	0.000000	0.000000	0.000000	0.000000	0.000000	0.000000	0.000000	0.000000	0.000000
0.085000	-0.015531	-0.262838	0.108487	0.088451	0.072289	0.078134	-0.083495	-0.099346	0.062003	0.132793	0.112469	0.027437	0.146525	0.146525	1.071641	0.939733	0.000000	0.000000	0.000000	0.000000	0.000000	0.000000	0.000000	0.000000	0.000000	0.000000	0.000000	0.000000	0.000000	0.000000	0.000000	0.000000	0.000000	0.000000	0.000000	0.000000	0.000000	0.000000
0.090000	-0.015519	-0.262831	0.108493	0.088429	0.072276	0.078089	-0.083532	-0.099414	0.061975	0.132798	0.112452	0.027437	0.146525	0.146525	1.071590	0.941837	0.000000	0.000000	0.000000	0.000000	0.000000	0.000000	0.000000	0.000000	0.000000	0.000000	0.000000	0.000000	0.000000	0.000000	0.000000	0.000000	0.000000	0.000000	0.000000	0.000000	0.000000	0.000000
0.095000	-0.015508	-0.262827	0.108501	0.088414	0.072269	0.078048	-0.083570	-0.099489	0.061957	0.132808	0.112442	0.027437	0.146525	0.146525	1.071570	0.943923	0.000000	0.000000	0.000000	0.000000	0.000000	0.000000	0.000000	0.000000	0.000000	0.000000	0.000000	0.000000	0.000000	0.000000	0.000000	0.000000	0.000000	0.000000	0.000000	0.000000	0.000000	0.000000
0.100000	-0.015499	-0.262825	0.108512	0.088405	0.072268	0.078010	-0.083610	-0.099571	0.061950	0.132825	0.112440	0.027437	0.146525	0.146525	1.071586	0.945990	0.000000	0.000000	0.000000	0.000000	0.000000	0.000000	0.000000	0.000000	0.000000	0.000000	0.000000	0.000000	0.000000	0.000000	0.000000	0.000000	0.000000	0.000000	0.000000	0.000000	0.000000	0.000000
0.105000	-0.015490	-0.262827	0.108526	0.088404	0.072273	0.077976	-0.083651	-0.099660	0.061956	0.132848	0.112446	0.027437	0.146525	0.146525	1.071640	0.948039	0.000000	0.000000	0.000000	0.000000	0.000000	0.000000	0.000000	0.000000	0.000000	0.000000	0.000000	0.000000	0.000000	0.000000	0.000000	0.000000	0.000000	0.000000	0.000000	0.000000	0.000000	0.000000
0.110000	-0.015483	-0.262832	0.108544	0.088409	0.072285	0.077945	-0.083694	-0.099756	0.061973	0.132878	0.112461	0.027437	0.146525	0.146525	1.071736	0.950069	0.000000	0.000000	0.000000	0.000000	0.000000	0.000000	0.000000	0.000000	0.000000	0.000000	0.000000	0.000000	0.000000	0.000000	0.000000	0.000000	0.000000	0.000000	0.000000	0.000000	0.000000	0.000000
0.115000	-0.015477	-0.262839	0.108563	0.088422	0.072303	0.077919	-0.083737	-0.099860	0.062004	0.132914	0.112484	0.027437	0.146525	0.146525	1.071877	0.952081	0.000000	0.000000	0.000000	0.000000	0.000000	0.000000	0.000000	0.000000	0.000000	0.000000	0.000000	0.000000	0.000000	0.000000	0.000000	0.000000	0.000000	0.000000	0.000000	0.000000	0.000000	0.000000
0.120000	-0.015472	-0.262849	0.108586	0.088441	0.072328	0.077897	-0.083782	-0.099973	0.062049	0.132957	0.112516	0.027437	0.146525	0.146525	1.072068	0.954073	0.000000	0.000000	0.000000	0.000000	0.000000	0.000000	0.000000	0.000000	0.000000	0.000000	0.000000	0.000000	0.000000	0.000000	0.000000	0.000000	0.000000	0.000000	0.000000	0.000000	0.000000	0.000000
